# xmcd
#
# Track frame offsets:
#	150
#	12583
#	26177
#	38717
#	50620
#	61919
#	74584
#	85606
#	98514
#	111283
#	124928
#	137506
#	148653
#	161861
#	173896
#	188731
#	201344
#
# Disc length: 2831 seconds
#
# Revision: 3
# Processed by: cddbd v1.5.2PL0 Copyright (c) Steve Scherf et al.
# Submitted via: EasyCDDAExtractor 2010.6.0.0
#
DISCID=f60b0d11
DTITLE=Professor Longhair - Professor Longhair - The Primo Collection CD 2
DYEAR=2009
DGENRE=Blues
TTITLE0=Longhair Stomp
TTITLE1=Hadacol Bounce
TTITLE2=Byrd's Blues
TTITLE3=Her Mind Is Gone
TTITLE4=Bald Head
TTITLE5=Hey Now Baby
TTITLE6=Oh Well
TTITLE7=Mardi Gras in New Orleans
TTITLE8=She Walks Right In
TTITLE9=Hey Little Girl
TTITLE10=Willie Mae
TTITLE11=Professor Longhair Blues
TTITLE12=Walk Your Blues Away
TTITLE13=Boogie Woogie
TTITLE14=Longhair's Blues Rhumba
TTITLE15=She Ain't Got No Hair
TTITLE16=Bye Bye Baby
EXTD=
EXTT0=
EXTT1=
EXTT2=
EXTT3=
EXTT4=
EXTT5=
EXTT6=
EXTT7=
EXTT8=
EXTT9=
EXTT10=
EXTT11=
EXTT12=
EXTT13=
EXTT14=
EXTT15=
EXTT16=
PLAYORDER=
